<?xml version="1.0" encoding="UTF-8"?>
<svg width="143px" height="42px" viewBox="0 0 143 42" version="1.1" xmlns="http://www.w3.org/2000/svg" xmlns:xlink="http://www.w3.org/1999/xlink">
    <!-- Generator: Sketch 49 (51002) - http://www.bohemiancoding.com/sketch -->
    <title>Online-Logo-White</title>
    <desc>Created with Sketch.</desc>
    <defs>
        <polygon id="path-1" points="0 0.1248 30.6279 0.1248 30.6279 31 0 31"></polygon>
        <polygon id="path-3" points="0.2124 0.1249 29.976 0.1249 29.976 30.9999 0.2124 30.9999"></polygon>
        <polygon id="path-5" points="0.8404827 0.187 16.5356893 0.187 16.5356893 9.3578 0.8404827 9.3578"></polygon>
    </defs>
    <g id="Page-1" stroke="none" stroke-width="1" fill="none" fill-rule="evenodd">
        <g id="Online-Logo-White" transform="translate(0.000000, -1.000000)">
            <g id="Group-3" transform="translate(0.000000, 11.813300)">
                <mask id="mask-2" fill="white">
                    <use xlink:href="#path-1"></use>
                </mask>
                <g id="Clip-2"></g>
                <path d="M-0.0001,14.5218 C-0.0001,9.7038 1.3279,6.0998 3.9829,3.7088 C6.6379,1.3198 10.4149,0.1248 15.3139,0.1248 C20.2119,0.1248 23.9899,1.3198 26.6449,3.7088 C29.2999,6.0998 30.6279,9.7038 30.6279,14.5218 L30.6279,16.6038 C30.6279,21.4218 29.2999,25.0258 26.6449,27.4158 C23.9899,29.8048 20.2119,31.0008 15.3139,31.0008 C10.4149,31.0008 6.6379,29.8048 3.9829,27.4158 C1.3279,25.0258 -0.0001,21.4218 -0.0001,16.6038 L-0.0001,14.5218 Z M9.0159,16.4298 C9.0159,19.0898 9.4789,21.0838 10.4049,22.4138 C11.3309,23.7438 12.9669,24.4088 15.3139,24.4088 C17.6609,24.4088 19.2969,23.7438 20.2229,22.4138 C21.1489,21.0838 21.6119,19.0898 21.6119,16.4298 L21.6119,14.6948 C21.6119,12.0358 21.1489,10.0408 20.2229,8.7108 C19.2969,7.3808 17.6609,6.7158 15.3139,6.7158 C12.9669,6.7158 11.3309,7.3808 10.4049,8.7108 C9.4789,10.0408 9.0159,12.0358 9.0159,14.6948 L9.0159,16.4298 Z" id="Fill-1" fill="#FFFFFF" mask="url(#mask-2)"></path>
            </g>
            <path d="M60.6288,41.3683 C60.6288,42.0233 60.2778,42.3503 59.5788,42.3503 L52.6628,42.3503 C51.9618,42.3503 51.6128,42.0233 51.6128,41.3683 L51.6128,24.3693 C51.6128,22.2113 51.1598,20.6983 50.2548,19.8303 C49.3488,18.9633 47.7228,18.5293 45.3768,18.5293 C44.5518,18.5293 43.7398,18.5583 42.9378,18.6163 C42.1348,18.6743 41.3208,18.7803 40.4988,18.9343 L40.4988,41.3683 C40.4988,42.0233 40.1478,42.3503 39.4478,42.3503 L32.5328,42.3503 C31.8328,42.3503 31.4828,42.0233 31.4828,41.3683 L31.4828,16.0433 C31.4828,15.2333 31.6268,14.6183 31.9158,14.1933 C32.2028,13.7693 32.6558,13.4613 33.2738,13.2683 C35.0028,12.8443 37.0088,12.5163 39.2938,12.2853 C41.5788,12.0543 43.8118,11.9383 45.9938,11.9383 C48.5868,11.9383 50.8108,12.1603 52.6628,12.6033 C54.5158,13.0463 56.0278,13.7603 57.2018,14.7423 C58.3748,15.7253 59.2388,16.9883 59.7948,18.5293 C60.3508,20.0723 60.6288,21.9213 60.6288,24.0803 L60.6288,41.3683 Z" id="Fill-4" fill="#FFFFFF"></path>
            <path d="M72.784,13.4416 C72.784,12.7476 73.133,12.4006 73.834,12.4006 L80.749,12.4006 C81.449,12.4006 81.8,12.7476 81.8,13.4416 L81.8,41.3686 C81.8,42.0236 81.449,42.3506 80.749,42.3506 L73.834,42.3506 C73.133,42.3506 72.784,42.0236 72.784,41.3686 L72.784,13.4416 Z" id="Fill-6" fill="#FFFFFF"></path>
            <path d="M62.1942,2.0514 C62.1942,1.3574 62.5432,1.0104 63.2432,1.0104 L70.1592,1.0104 C70.8592,1.0104 71.2092,1.3574 71.2092,2.0514 L71.2092,41.3684 C71.2092,42.0234 70.8592,42.3504 70.1592,42.3504 L63.2432,42.3504 C62.5432,42.3504 62.1942,42.0234 62.1942,41.3684 L62.1942,2.0514 Z" id="Fill-8" fill="#FFFFFF"></path>
            <path d="M112.5223,41.3683 C112.5223,42.0233 112.1713,42.3503 111.4723,42.3503 L104.5563,42.3503 C103.8563,42.3503 103.5063,42.0233 103.5063,41.3683 L103.5063,24.3693 C103.5063,22.2113 103.0533,20.6983 102.1483,19.8303 C101.2423,18.9633 99.6163,18.5293 97.2703,18.5293 C96.4463,18.5293 95.6343,18.5583 94.8313,18.6163 C94.0283,18.6743 93.2143,18.7803 92.3923,18.9343 L92.3923,41.3683 C92.3923,42.0233 92.0423,42.3503 91.3423,42.3503 L84.4263,42.3503 C83.7263,42.3503 83.3763,42.0233 83.3763,41.3683 L83.3763,16.0433 C83.3763,15.2333 83.5203,14.6183 83.8093,14.1933 C84.0963,13.7693 84.5493,13.4613 85.1673,13.2683 C86.8963,12.8443 88.9033,12.5163 91.1873,12.2853 C93.4723,12.0543 95.7053,11.9383 97.8873,11.9383 C100.4803,11.9383 102.7043,12.1603 104.5563,12.6033 C106.4093,13.0463 107.9213,13.7603 109.0953,14.7423 C110.2683,15.7253 111.1323,16.9883 111.6883,18.5293 C112.2453,20.0723 112.5223,21.9213 112.5223,24.0803 L112.5223,41.3683 Z" id="Fill-10" fill="#FFFFFF"></path>
            <g id="Group-14" transform="translate(113.000000, 11.813300)">
                <mask id="mask-4" fill="white">
                    <use xlink:href="#path-3"></use>
                </mask>
                <g id="Clip-13"></g>
                <path d="M9.4754,19.2049 C9.8454,21.0939 10.7304,22.4339 12.1304,23.2229 C13.5294,24.0139 15.4034,24.4089 17.7494,24.4089 C19.2724,24.4089 20.8274,24.3609 22.4124,24.2639 C23.9964,24.1679 25.4264,24.0239 26.7034,23.8299 C27.3614,23.7149 27.6914,23.9459 27.6914,24.5239 L27.6914,28.6289 C27.6914,29.1689 27.4034,29.5359 26.8274,29.7279 C25.2614,30.1529 23.5944,30.4709 21.8254,30.6819 C20.0544,30.8929 18.3454,30.9999 16.7004,30.9999 C13.7364,30.9999 11.2134,30.6719 9.1354,30.0169 C7.0564,29.3629 5.3584,28.3979 4.0404,27.1259 C2.7224,25.8539 1.7564,24.3029 1.1394,22.4719 C0.5214,20.6419 0.2124,18.5689 0.2124,16.2559 L0.2124,14.4639 C0.2124,10.0319 1.4674,6.5339 3.9794,3.9699 C6.4904,1.4069 10.4214,0.1249 15.7734,0.1249 C20.5064,0.1249 24.0574,1.2329 26.4254,3.4499 C28.7914,5.6659 29.9764,8.6629 29.9764,12.4399 C29.9764,14.7529 29.1314,16.4589 27.4444,17.5569 C25.7554,18.6559 23.4714,19.2049 20.5904,19.2049 L9.4754,19.2049 Z M15.5264,6.7159 C13.7974,6.7159 12.3674,7.1989 11.2354,8.1619 C10.1024,9.1259 9.4334,10.8019 9.2284,13.1919 L18.9224,13.1919 C19.6224,13.1919 20.1364,13.0279 20.4664,12.7009 C20.7954,12.3729 20.9604,11.9399 20.9604,11.3999 C20.9604,9.8589 20.5284,8.6919 19.6634,7.9019 C18.7984,7.1119 17.4194,6.7159 15.5264,6.7159 Z" id="Fill-12" fill="#FFFFFF" mask="url(#mask-4)"></path>
            </g>
            <g id="Group-17" transform="translate(72.000000, 0.813300)">
                <mask id="mask-6" fill="white">
                    <use xlink:href="#path-5"></use>
                </mask>
                <g id="Clip-16"></g>
                <path d="M15.1395,0.1908 C16.3975,0.1908 17.0105,1.7008 16.1015,2.5578 L9.6635,8.6258 C9.1885,9.0948 8.5435,9.3578 7.8695,9.3578 L1.7065,9.3528 C1.1095,9.3518 0.6935,8.7718 0.8895,8.2158 C1.6145,6.1688 5.3325,1.1268 5.4235,0.9948 C5.7675,0.4968 6.3455,0.1858 6.9795,0.1868 C8.5305,0.1888 11.3975,0.1898 15.1395,0.1908" id="Fill-15" fill="#DB1E36" mask="url(#mask-6)"></path>
            </g>
        </g>
    </g>
</svg>